<?xml version="1.0" ?>
<!DOCTYPE svg  PUBLIC '-//W3C//DTD SVG 1.1//EN'  'http://www.w3.org/Graphics/SVG/1.1/DTD/svg11.dtd'>
<svg
  id="Layer_1"
  style="enable-background:new 0 0 76 76;"
  version="1.1"
  viewBox="0 0 76 76"
  xml:space="preserve"
  xmlns="http://www.w3.org/2000/svg"
  xmlns:xlink="http://www.w3.org/1999/xlink">

<style type="text/css">
	.st3{fill:#9955E8;} /* background */
</style>

<g>
	<path class="st3" d="M5.7,3.4l4.8,61.4c0.1,0.9,0.7,1.7,1.6,2l25.3,8c0.4,0.1,0.9,0.1,1.4,0l25.3-8c0.9-0.3,1.5-1.1,1.6-2l4.8-61.4
	C70.4,2.1,69.4,1,68.1,1H7.9C6.6,1,5.6,2.1,5.7,3.4z
	M58,22.5H26.7l0.9,8.7h29.7l-1.9,24.8L38,61.6l-17.4-5.5l-1-13h9.1v6.4
	l9.5,2.6l9.5-2.6l0.7-10.1H19.3l-1.9-24.8h41.3L58,22.5z"/>
</g>
</svg>
